<svg width="253" height="49" viewBox="0 0 253 49" fill="none" xmlns="http://www.w3.org/2000/svg">
    <path d="M154.616 38.9753H149.343V0.5H154.616V38.9753Z" fill="#004033" />
    <path fill-rule="evenodd" clip-rule="evenodd"
        d="M120.552 26.6525C120.605 26.222 120.605 25.4148 120.605 24.6614C120.605 16.1592 115.924 10.6704 107.583 10.6704C100.473 10.6704 95.6785 14.9172 94.3782 21.4488C93.9777 22.5775 93.5884 23.9155 93.1827 25.3095L93.095 25.611C92.5898 27.3456 92.0539 29.1592 91.4279 30.8102C90.8002 32.4658 90.0939 33.924 89.2618 34.962C88.4329 35.996 87.5214 36.5639 86.4728 36.5639C85.7118 36.5639 85.1156 36.3119 84.7148 35.8959C84.3146 35.4805 84.0695 34.8601 84.09 34.0477C84.2001 31.7175 85.3876 29.2954 86.6638 26.6924C86.7295 26.5583 86.7955 26.4237 86.8616 26.2887C88.1881 23.5772 89.5428 20.685 89.5428 17.6929C89.5428 15.7246 88.8622 13.8269 87.5138 12.4185C86.1609 11.0053 84.1644 10.1148 81.5942 10.1148C78.5562 10.1148 75.5063 12.0146 72.757 14.9828C72.3864 13.607 71.6715 12.4666 70.6143 11.6344C69.3457 10.6359 67.6272 10.1148 65.5235 10.1148C63.0187 10.1148 60.6542 11.445 58.5378 13.5163C57.0879 14.9353 55.734 16.7213 54.5063 18.7205C55.1854 16.4 56.0605 14.1426 57.0695 12.0884L57.2838 11.6521L52.8164 10.0032L52.6436 10.3643C48.1718 19.7093 45.4748 29.8823 45.3784 40.4007L45.3744 40.8435H50.0835V40.4047C50.0835 39.7546 50.1297 39.054 50.1773 38.385C50.5543 35.1251 52.5019 29.1975 55.3376 24.0805C56.7549 21.5229 58.3805 19.1932 60.1211 17.5087C61.8675 15.8185 63.6792 14.8256 65.4757 14.8256C66.8943 14.8256 67.6311 15.239 68.0309 15.7433C68.4469 16.2679 68.5757 16.9847 68.5757 17.7408C68.5757 18.7559 68.1972 20.0303 67.6518 21.5191C67.4648 22.0298 67.2579 22.5662 67.0443 23.12C66.6504 24.1411 66.2337 25.2214 65.8763 26.3093C64.0446 30.7569 62.8859 35.7858 62.7407 40.3909L62.7265 40.8435H67.6094L67.5886 40.3848C67.5318 39.1327 67.8475 36.8982 68.5097 34.2211C69.1687 31.5563 70.161 28.4928 71.4323 25.5954C72.7053 22.694 74.2484 19.9814 76.0008 18.0015C77.7582 16.0158 79.672 14.8256 81.6899 14.8256C82.9509 14.8256 83.7165 15.2311 84.1738 15.7582C84.6415 16.2973 84.8377 17.0224 84.8377 17.7408C84.8377 18.6858 84.5108 19.8622 83.9883 21.2155C83.5521 22.3452 82.9952 23.5605 82.4154 24.8259L82.4119 24.8335C82.3016 25.0742 82.1905 25.3167 82.0792 25.5608C81.3856 27.0823 80.6892 28.6583 80.1789 30.1889C79.6696 31.7167 79.3349 33.2295 79.3855 34.6229L79.3856 34.6249C79.4611 36.4661 80.1173 38.1308 81.2909 39.3387C82.4682 40.5505 84.1395 41.2747 86.1858 41.2747C88.3684 41.2747 90.053 40.6568 91.3737 39.6218C92.6861 38.5933 93.6101 37.1759 94.3193 35.6219C94.7782 34.6162 95.1523 33.5414 95.4839 32.4618C97.526 36.926 101.66 39.7825 107.583 39.7825C114.794 39.7825 118.83 35.8005 120.283 30.5269H114.901C114.417 32.3565 112.534 35.4776 107.691 35.4776C102.256 35.4776 99.5651 31.2265 99.4575 26.6525H120.552ZM115.117 22.509H99.4575C99.7803 17.9888 103.009 14.9753 107.422 14.9753C112.103 14.9753 115.117 18.204 115.117 22.509Z"
        fill="#004033" />
    <path fill-rule="evenodd" clip-rule="evenodd"
        d="M121.508 31.8722C121.508 36.5538 125.006 39.7287 130.495 39.7287C134.961 39.7287 138.082 37.9529 139.858 35.1009H139.966C140.289 38.222 141.688 39.2444 144.325 39.2444C145.186 39.2444 146.1 39.1368 147.015 38.9215V35.6928C146.692 35.7466 146.531 35.7466 146.369 35.7466C145.347 35.7466 145.078 34.7242 145.078 32.7332V20.1413C145.078 13.0381 140.558 10.6704 134.908 10.6704C126.513 10.6704 123.069 14.8139 122.8 20.0875H128.181C128.45 16.4283 129.903 14.9215 134.692 14.9215C138.728 14.9215 139.912 16.5897 139.912 18.5807C139.912 21.2713 137.275 21.8094 132.97 22.6166C126.136 23.9081 121.508 25.7377 121.508 31.8722ZM139.912 28.2668C139.912 33.0561 136.414 35.4776 131.679 35.4776C128.396 35.4776 126.997 34.0785 126.997 31.4955C126.997 28.6435 129.042 27.2982 133.885 26.3296C136.683 25.7377 139.051 25.1457 139.912 24.3386V28.2668Z"
        fill="#004033" />
    <path
        d="M196.59 19.926C196.59 14.0605 193.791 10.7242 188.249 10.7242C184.051 10.7242 181.253 12.8767 179.262 15.5134H179.155C178.078 12.4462 175.711 10.7242 171.89 10.7242C167.747 10.7242 165.217 12.8767 163.764 14.9753H163.657V11.5314H158.383V38.9753H163.657V22.1323C163.657 17.9888 166.132 15.2444 170.06 15.2444C174.096 15.2444 174.85 17.7197 174.85 21.3789V38.9753H180.123V22.1323C180.123 17.9888 182.599 15.2444 186.527 15.2444C190.563 15.2444 191.316 17.7197 191.316 21.3789V38.9753H196.59V19.926Z"
        fill="#F85B1D" />
    <path fill-rule="evenodd" clip-rule="evenodd"
        d="M207.803 39.7287C202.314 39.7287 198.816 36.5538 198.816 31.8722C198.816 25.7376 203.444 23.908 210.278 22.6166C214.583 21.8094 217.22 21.2713 217.22 18.5807C217.22 16.5897 216.036 14.9215 212 14.9215C207.211 14.9215 205.758 16.4282 205.489 20.0874H200.108C200.377 14.8139 203.821 10.6704 212.216 10.6704C217.866 10.6704 222.386 13.0381 222.386 20.1412V32.7332C222.386 34.7242 222.655 35.7466 223.677 35.7466C223.839 35.7466 224 35.7466 224.323 35.6928V38.9215C223.408 39.1368 222.494 39.2444 221.633 39.2444C218.996 39.2444 217.597 38.222 217.274 35.1009H217.166C215.39 37.9529 212.269 39.7287 207.803 39.7287ZM208.987 35.4776C213.722 35.4776 217.22 33.056 217.22 28.2668V24.3385C216.359 25.1457 213.991 25.7376 211.193 26.3296C206.35 27.2982 204.305 28.6435 204.305 31.4955C204.305 34.0785 205.704 35.4776 208.987 35.4776Z"
        fill="#F85B1D" />
    <path fill-rule="evenodd" clip-rule="evenodd"
        d="M252.803 25.2533C252.803 16.213 247.476 10.7242 240.48 10.7242C236.175 10.7242 233.538 12.8228 232.032 14.7601H231.924V11.5314H226.651V48.5H231.924V35.5852H232.032C233.538 37.7915 236.175 39.7287 240.48 39.7287C247.476 39.7287 252.803 34.2937 252.803 25.2533ZM247.26 25.2533C247.26 30.6345 244.785 35.3699 239.619 35.3699C234.884 35.3699 231.978 31.4417 231.978 25.2533C231.978 19.0112 234.884 15.1367 239.619 15.1367C244.785 15.1367 247.26 19.8722 247.26 25.2533Z"
        fill="#F85B1D" />
    <path
        d="M30.1292 25.6921C30.5533 24.8346 30.2019 23.7957 29.3443 23.3716C28.4868 22.9475 27.4478 23.2989 27.0238 24.1564C26.0991 26.0262 24.9879 27.5572 23.7399 28.7471C23.8721 28.0744 23.8637 27.469 23.7148 26.9308C23.5027 26.1643 23.1059 25.601 22.5247 25.2411C21.922 24.8867 21.3211 24.7872 20.722 24.9427C20.1228 25.0981 19.73 25.3777 19.5435 25.7813C19.3414 26.2112 19.3034 26.6541 19.4296 27.1099C19.5733 27.6291 19.9288 27.9035 20.2827 28.1767C20.736 28.5266 21.1866 28.8744 21.1866 29.7316C21.1866 29.8749 21.1589 30.2067 20.9741 30.7239C20.4872 30.9711 19.9883 31.1775 19.4792 31.3432C16.4825 32.3184 12.8669 31.9681 8.87564 29.7445C8.03992 29.2789 6.98499 29.5789 6.51939 30.4147C6.05379 31.2504 6.35382 32.3053 7.18954 32.7709C11.8401 35.3619 16.4564 35.9701 20.5513 34.6375C24.635 33.3085 27.9312 30.1368 30.1292 25.6921Z"
        fill="#F85B1D" />
    <path fill-rule="evenodd" clip-rule="evenodd"
        d="M10.3932 8.36382C10.3932 7.40715 11.1687 6.63162 12.1254 6.63162C13.082 6.63162 13.8576 7.40715 13.8576 8.36382V9.0567H21.306V8.36382C21.306 7.40715 22.0815 6.63162 23.0382 6.63162C23.9949 6.63162 24.7704 7.40715 24.7704 8.36382V9.0567H27.5419C31.4642 9.0567 34.6439 12.2364 34.6439 16.1587V34.1735C34.6439 38.0959 31.4642 41.2755 27.5419 41.2755H7.102C3.17968 41.2755 0 38.0959 0 34.1735V16.1587C0 12.2364 3.17968 9.0567 7.102 9.0567H10.3932V8.36382ZM10.3932 15.8123V12.5211H7.102C5.09301 12.5211 3.46439 14.1497 3.46439 16.1587V34.1735C3.46439 36.1825 5.09301 37.8112 7.102 37.8112H27.5419C29.5509 37.8112 31.1795 36.1825 31.1795 34.1735V16.1587C31.1795 14.1497 29.5509 12.5211 27.5419 12.5211H24.7704V15.8123C24.7704 16.7689 23.9949 17.5445 23.0382 17.5445C22.0815 17.5445 21.306 16.7689 21.306 15.8123V12.5211H13.8576V15.8123C13.8576 16.7689 13.082 17.5445 12.1254 17.5445C11.1687 17.5445 10.3932 16.7689 10.3932 15.8123Z"
        fill="#F85B1D" />
</svg>